<svg viewBox="0 0 256 256" xmlns="http://www.w3.org/2000/svg"><path fill="none" d="M0 0h256v256H0z"></path><path d="M155.5 24.8a8 8 0 0 0-8.4.9L77.3 80H32a16 16 0 0 0-16 16v64a16 16 0 0 0 16 16h45.3l69.8 54.3a8.1 8.1 0 0 0 4.9 1.7 8.5 8.5 0 0 0 3.5-.8 8 8 0 0 0 4.5-7.2V32a8 8 0 0 0-4.5-7.2ZM32 96h40v64H32ZM227.3 128l18.4-18.3a8.1 8.1 0 0 0-11.4-11.4L216 116.7l-18.3-18.4a8.1 8.1 0 0 0-11.4 11.4l18.4 18.3-18.4 18.3a8.1 8.1 0 0 0 0 11.4 8.2 8.2 0 0 0 11.4 0l18.3-18.4 18.3 18.4a8.2 8.2 0 0 0 11.4 0 8.1 8.1 0 0 0 0-11.4Z" fill="currentColor"></path></svg>